<svg xmlns="http://www.w3.org/2000/svg" xmlns:cc="http://web.resource.org/cc/" xmlns:svg="http://www.w3.org/2000/svg" id="svg602" width="724.691" height="410" x="0" y="0" version="1.0" xml:space="preserve"><metadata id="metadata164"/><path id="path703" fill="#b52487" fill-opacity=".237" fill-rule="evenodd" d="M 367.05525,192.7783 L 495.57061,323.0027 L 719.89985,323.227 L 720.77417,66.016898 L 638.18326,66.272598 L 367.05525,192.7783 z" font-size="12"/><path id="path702" fill="#455ab5" fill-opacity=".237" fill-rule="evenodd" d="M 41.36927,64.590198 L 41.99428,347.0194 L 73.01245,345.8591 L 372.15555,197.1989 L 284.18465,66.541198 L 41.36927,64.590198 z" font-size="12"/><rect id="rect605" width="647.191" height="1" x="34.615" y="80.155" fill="gray" fill-rule="evenodd" font-size="12"/><text id="text606" x="19.844" y="90.156" stroke-width="1" font-family="Luxi Sans" font-size="32" font-weight="normal" text-anchor="middle"><tspan id="tspan607">A</tspan></text><text id="text613" x="38.844" y="28.906" stroke-width="1" font-family="Luxi Sans" font-size="32" font-weight="normal" text-anchor="middle"><tspan id="tspan614">Time</tspan></text><g id="g624" font-size="12" transform="translate(-23.65625,-23.4559)"><rect id="rect612" width="180.941" height="7.25" x="34.771" y="63.611" fill="gray" fill-rule="evenodd"/><path id="path617" fill="gray" fill-rule="evenodd" d="M 208.75,52.36221 L 208.75,81.11221 L 231.25,67.36221 L 208.75,52.36221 z"/></g><rect id="rect630" width="647.191" height="1" x="34.615" y="192.655" fill="gray" fill-rule="evenodd" font-size="12"/><text id="text631" x="19.844" y="202.656" stroke-width="1" font-family="Luxi Sans" font-size="32" font-weight="normal" text-anchor="middle"><tspan id="tspan632">B</tspan></text><rect id="rect639" width="647.191" height="1" x="34.615" y="307.655" fill="gray" fill-rule="evenodd" font-size="12"/><text id="text640" x="19.844" y="317.656" stroke-width="1" font-family="Luxi Sans" font-size="32" font-weight="normal" text-anchor="middle"><tspan id="tspan641">C</tspan></text><rect id="rect653" width="11.25" height="12.5" x="137.344" y="187.031" fill-rule="evenodd" font-size="12"/><g id="g664" font-size="12" transform="matrix(0.965705,0,0,0.959017,133.1729,-35.70905)"><path id="path662" fill="gray" fill-rule="evenodd" d="M 155.0497,128.3383 C 154.7307,127.9653 154.172,127.9201 153.7972,128.237 L 152.0604,129.7053 C 151.6855,130.0222 151.6406,130.5777 151.9596,130.9507 L 233.8829,226.9048 C 234.202,227.2778 234.7607,227.3231 235.1355,227.0061 L 236.8723,225.5378 C 237.2471,225.2209 237.2921,224.6654 236.973,224.2924 L 155.0497,128.3383 z"/><path id="path629" fill="gray" fill-rule="evenodd" d="M 239.2159,220.4628 L 230.6008,228.3223 L 242.8681,234.7774 L 239.2159,220.4628 z"/><path id="path663" fill="gray" fill-rule="evenodd" d="M 155.0497,128.3383 C 154.7307,127.9653 154.172,127.9201 153.7972,128.237 L 152.0604,129.7053 C 151.6855,130.0222 151.6406,130.5777 151.9596,130.9507 L 233.8829,226.9048 C 234.202,227.2778 234.7607,227.3231 235.1355,227.0061 L 236.8723,225.5378 C 237.2471,225.2209 237.2921,224.6654 236.973,224.2924 L 155.0497,128.3383 z"/></g><g id="g668" font-size="12" transform="matrix(-0.23374,-0.898812,0.892631,-0.235359,91.47655,361.054)"><path id="path669" fill="gray" fill-rule="evenodd" d="M 155.0497,128.3383 C 154.7307,127.9653 154.172,127.9201 153.7972,128.237 L 152.0604,129.7053 C 151.6855,130.0222 151.6406,130.5777 151.9596,130.9507 L 233.8829,226.9048 C 234.202,227.2778 234.7607,227.3231 235.1355,227.0061 L 236.8723,225.5378 C 237.2471,225.2209 237.2921,224.6654 236.973,224.2924 L 155.0497,128.3383 z"/><path id="path670" fill="gray" fill-rule="evenodd" d="M 239.2159,220.4628 L 230.6008,228.3223 L 242.8681,234.7774 L 239.2159,220.4628 z"/><path id="path671" fill="gray" fill-rule="evenodd" d="M 155.0497,128.3383 C 154.7307,127.9653 154.172,127.9201 153.7972,128.237 L 152.0604,129.7053 C 151.6855,130.0222 151.6406,130.5777 151.9596,130.9507 L 233.8829,226.9048 C 234.202,227.2778 234.7607,227.3231 235.1355,227.0061 L 236.8723,225.5378 C 237.2471,225.2209 237.2921,224.6654 236.973,224.2924 L 155.0497,128.3383 z"/></g><g id="g676" font-size="12" transform="matrix(0.999802,-1.985075e-2,1.985075e-2,0.999802,270.3295,73.4556)"><path id="path677" fill="gray" fill-rule="evenodd" d="M 155.0497,128.3383 C 154.7307,127.9653 154.172,127.9201 153.7972,128.237 L 152.0604,129.7053 C 151.6855,130.0222 151.6406,130.5777 151.9596,130.9507 L 233.8829,226.9048 C 234.202,227.2778 234.7607,227.3231 235.1355,227.0061 L 236.8723,225.5378 C 237.2471,225.2209 237.2921,224.6654 236.973,224.2924 L 155.0497,128.3383 z"/><path id="path678" fill="gray" fill-rule="evenodd" d="M 239.2159,220.4628 L 230.6008,228.3223 L 242.8681,234.7774 L 239.2159,220.4628 z"/><path id="path679" fill="gray" fill-rule="evenodd" d="M 155.0497,128.3383 C 154.7307,127.9653 154.172,127.9201 153.7972,128.237 L 152.0604,129.7053 C 151.6855,130.0222 151.6406,130.5777 151.9596,130.9507 L 233.8829,226.9048 C 234.202,227.2778 234.7607,227.3231 235.1355,227.0061 L 236.8723,225.5378 C 237.2471,225.2209 237.2921,224.6654 236.973,224.2924 L 155.0497,128.3383 z"/></g><g id="g680" font-size="12" transform="matrix(0.945128,0,0,0.970726,144.4204,75.9169)"><path id="path681" fill="gray" fill-rule="evenodd" d="M 155.0497,128.3383 C 154.7307,127.9653 154.172,127.9201 153.7972,128.237 L 152.0604,129.7053 C 151.6855,130.0222 151.6406,130.5777 151.9596,130.9507 L 233.8829,226.9048 C 234.202,227.2778 234.7607,227.3231 235.1355,227.0061 L 236.8723,225.5378 C 237.2471,225.2209 237.2921,224.6654 236.973,224.2924 L 155.0497,128.3383 z"/><path id="path682" fill="gray" fill-rule="evenodd" d="M 239.2159,220.4628 L 230.6008,228.3223 L 242.8681,234.7774 L 239.2159,220.4628 z"/><path id="path683" fill="gray" fill-rule="evenodd" d="M 155.0497,128.3383 C 154.7307,127.9653 154.172,127.9201 153.7972,128.237 L 152.0604,129.7053 C 151.6855,130.0222 151.6406,130.5777 151.9596,130.9507 L 233.8829,226.9048 C 234.202,227.2778 234.7607,227.3231 235.1355,227.0061 L 236.8723,225.5378 C 237.2471,225.2209 237.2921,224.6654 236.973,224.2924 L 155.0497,128.3383 z"/></g><g id="g697" font-size="12" transform="matrix(-0.205647,-0.93856,0.941213,-0.205067,-33.76705,475.0205)"><path id="path698" fill="gray" fill-rule="evenodd" d="M 155.0497,128.3383 C 154.7307,127.9653 154.172,127.9201 153.7972,128.237 L 152.0604,129.7053 C 151.6855,130.0222 151.6406,130.5777 151.9596,130.9507 L 233.8829,226.9048 C 234.202,227.2778 234.7607,227.3231 235.1355,227.0061 L 236.8723,225.5378 C 237.2471,225.2209 237.2921,224.6654 236.973,224.2924 L 155.0497,128.3383 z"/><path id="path699" fill="gray" fill-rule="evenodd" d="M 239.2159,220.4628 L 230.6008,228.3223 L 242.8681,234.7774 L 239.2159,220.4628 z"/><path id="path700" fill="gray" fill-rule="evenodd" d="M 155.0497,128.3383 C 154.7307,127.9653 154.172,127.9201 153.7972,128.237 L 152.0604,129.7053 C 151.6855,130.0222 151.6406,130.5777 151.9596,130.9507 L 233.8829,226.9048 C 234.202,227.2778 234.7607,227.3231 235.1355,227.0061 L 236.8723,225.5378 C 237.2471,225.2209 237.2921,224.6654 236.973,224.2924 L 155.0497,128.3383 z"/></g><g id="g704" font-size="12" transform="matrix(0.951025,0,0,0.967159,-21.82762,-27.64195)"><path id="path695" fill="gray" fill-rule="evenodd" d="M 568.4155,127.8717 L 577.6377,131.93 L 578.432,119.94 L 568.4155,127.8717 z"/><path id="path694" fill="gray" fill-rule="evenodd" d="M 155.0497,128.3383 C 154.7307,127.9653 154.172,127.9201 153.7972,128.237 L 152.0604,129.7053 C 151.6855,130.0222 151.6406,130.5777 151.9596,130.9507 L 330.6068,347.4786 C 330.9259,347.8516 331.4846,347.8969 331.8594,347.5799 L 333.5962,346.1116 C 332.4304,347.4863 332.6982,344.6538 333.6969,344.8662 L 155.0497,128.3383 z" transform="matrix(-0.350514,-0.792181,0.789169,-0.351981,416.7191,514.3477)"/></g><g id="g707" font-size="12" transform="matrix(0.961908,0,0,0.978106,91.87715,-31.45497)"><path id="path708" fill="gray" fill-rule="evenodd" d="M 568.4155,127.8717 L 577.6377,131.93 L 578.432,119.94 L 568.4155,127.8717 z"/><path id="path709" fill="gray" fill-rule="evenodd" d="M 155.0497,128.3383 C 154.7307,127.9653 154.172,127.9201 153.7972,128.237 L 152.0604,129.7053 C 151.6855,130.0222 151.6406,130.5777 151.9596,130.9507 L 330.6068,347.4786 C 330.9259,347.8516 331.4846,347.8969 331.8594,347.5799 L 333.5962,346.1116 C 332.4304,347.4863 332.6982,344.6538 333.6969,344.8662 L 155.0497,128.3383 z" transform="matrix(-0.350514,-0.792181,0.789169,-0.351981,416.7191,514.3477)"/></g><rect id="rect712" width="11.25" height="12.5" x="167.969" y="187.031" fill-rule="evenodd" font-size="12"/><rect id="rect618" width="11.25" height="12.5" x="271.094" y="76.406" fill-rule="evenodd" font-size="12"/><rect id="rect716" width="11.25" height="12.5" x="361.719" y="188.906" fill-rule="evenodd" font-size="12"/><rect id="rect720" width="11.25" height="12.5" x="417.344" y="188.906" fill-rule="evenodd" font-size="12"/><rect id="rect643" width="11.25" height="12.5" x="51.094" y="302.656" fill-rule="evenodd" font-size="12"/><rect id="rect730" width="11.25" height="12.5" x="372.969" y="302.656" fill-rule="evenodd" font-size="12"/><rect id="rect734" width="11.25" height="12.5" x="416.719" y="302.031" fill-rule="evenodd" font-size="12"/><rect id="rect738" width="11.25" height="12.5" x="510.469" y="303.906" fill-rule="evenodd" font-size="12"/><rect id="rect742" width="11.25" height="12.5" x="538.594" y="303.906" fill-rule="evenodd" font-size="12"/><rect id="rect751" width="11.25" height="12.5" x="241.094" y="75.781" fill-rule="evenodd" font-size="12"/><text id="text752" x="245.549" y="108.906" fill="#d90000" stroke-width="1" font-family="Luxi Sans" font-size="18" font-weight="normal" text-anchor="middle" xml:space="preserve"><tspan id="tspan753" x="245.549" y="108.906">A:1</tspan></text><rect id="rect755" width="11.25" height="12.5" x="529.219" y="75.781" fill-rule="evenodd" font-size="12"/><rect id="rect759" width="11.25" height="12.5" x="649.219" y="75.156" fill-rule="evenodd" font-size="12"/><rect id="rect763" width="11.25" height="12.5" x="277.344" y="187.031" fill-rule="evenodd" font-size="12"/><text id="text767" x="-75.339" y="169.786" fill="#0000bc" stroke="#0000bc" stroke-width="1" font-family="Luxi Sans" font-size="24" font-weight="normal" text-anchor="middle" transform="matrix(0.438411,-0.898775,0.898775,0.438411,0,0)" xml:space="preserve"><tspan id="tspan774" x="-75.339" y="169.786" stroke-width="1">Cause</tspan></text><text id="text776" x="66.625" y="692.256" fill="#c90072" stroke="#c90072" stroke-width="1" font-family="Luxi Sans" font-size="24" font-weight="normal" text-anchor="middle" transform="matrix(0.438411,-0.898775,0.898775,0.438411,0,0)" xml:space="preserve"><tspan id="tspan779" x="66.625" y="692.256" stroke-width="1">Effect</tspan></text><text id="text784" x="6.335" y="421.782" fill="#c9c9c9" stroke="#c9c9c9" stroke-width="1" font-family="Luxi Sans" font-size="24" font-weight="normal" text-anchor="middle" transform="matrix(0.763489,-0.64582,0.64582,0.763489,0,0)" xml:space="preserve"><tspan id="tspan787" x="6.335" y="421.782" fill="#c9c9c9" stroke="#c9c9c9" stroke-width="1">Independent</tspan></text><text id="text789" x="264.575" y="343.718" fill="#c9c9c9" stroke="#c9c9c9" stroke-width="1" font-family="Luxi Sans" font-size="24" font-weight="normal" text-anchor="middle" transform="matrix(0.763489,-0.64582,0.64582,0.763489,0,0)" xml:space="preserve"><tspan id="tspan790" x="264.575" y="343.718" fill="#c9c9c9" stroke="#c9c9c9" stroke-width="1">Independent</tspan></text><rect id="rect792" width="35" height="61.25" x="230.55" y="92.031" fill="none" fill-rule="evenodd" stroke="#000" stroke-width=".969" font-size="12"/><text id="text793" x="245.549" y="128.281" fill="#d90000" stroke-width="1" font-family="Luxi Sans" font-size="18" font-weight="normal" text-anchor="middle" xml:space="preserve"><tspan id="tspan794" x="245.549" y="128.281">B:2</tspan></text><text id="text796" x="244.924" y="146.406" fill="#d90000" stroke-width="1" font-family="Luxi Sans" font-size="18" font-weight="normal" text-anchor="middle" xml:space="preserve"><tspan id="tspan797" x="244.924" y="146.406">C:1</tspan></text><text id="text799" x="19.844" y="112.031" stroke-width="1" font-family="Luxi Sans" font-size="18" font-weight="normal" text-anchor="middle" xml:space="preserve"><tspan id="tspan800" x="19.844" y="112.031">A:0</tspan></text><rect id="rect802" width="35" height="61.25" x="4.844" y="95.156" fill="none" fill-rule="evenodd" stroke="#000" stroke-width=".969" font-size="12"/><rect id="rect812" width="35" height="61.25" x="5.469" y="322.656" fill="none" fill-rule="evenodd" stroke="#000" stroke-width=".969" font-size="12"/><text id="text816" x="20.469" y="377.031" stroke-width="1" font-family="Luxi Sans" font-size="18" font-weight="normal" text-anchor="middle" xml:space="preserve"><tspan id="tspan817" x="20.469" y="377.031">C:0</tspan></text><rect id="rect822" width="35" height="61.25" x="2.344" y="205.156" fill="none" fill-rule="evenodd" stroke="#000" stroke-width=".969" font-size="12"/><text id="text823" x="17.344" y="241.406" stroke-width="1" font-family="Luxi Sans" font-size="18" font-weight="normal" text-anchor="middle" xml:space="preserve"><tspan id="tspan824" x="17.344" y="241.406">B:0</tspan></text><rect id="rect832" width="35" height="61.25" x="159.587" y="204.514" fill="none" fill-rule="evenodd" stroke="#000" stroke-width=".969" font-size="12"/><text id="text833" x="174.587" y="240.764" fill="#d90000" stroke-width="1" font-family="Luxi Sans" font-size="18" font-weight="normal" text-anchor="middle" xml:space="preserve"><tspan id="tspan834" x="174.587" y="240.764">B:2</tspan></text><text id="text836" x="173.962" y="258.889" stroke-width="1" font-family="Luxi Sans" font-size="18" font-weight="normal" text-anchor="middle" xml:space="preserve"><tspan id="tspan837" x="173.962" y="258.889">C:1</tspan></text><rect id="rect842" width="35" height="61.25" x="121.086" y="204.514" fill="none" fill-rule="evenodd" stroke="#000" stroke-width=".969" font-size="12"/><text id="text843" x="136.086" y="240.764" fill="#d90000" stroke-width="1" font-family="Luxi Sans" font-size="18" font-weight="normal" text-anchor="middle" xml:space="preserve"><tspan id="tspan844" x="136.086" y="240.764">B:1</tspan></text><text id="text846" x="135.461" y="258.889" fill="#d90000" stroke-width="1" font-family="Luxi Sans" font-size="18" font-weight="normal" text-anchor="middle" xml:space="preserve"><tspan id="tspan847" x="135.461" y="258.889">C:1</tspan></text><rect id="rect852" width="35" height="61.25" x="45.593" y="316.998" fill="none" fill-rule="evenodd" stroke="#000" stroke-width=".969" font-size="12"/><text id="text856" x="59.968" y="371.373" fill="#d90000" stroke-width="1" font-family="Luxi Sans" font-size="18" font-weight="normal" text-anchor="middle" xml:space="preserve"><tspan id="tspan857" x="59.968" y="371.373">C:1</tspan></text><text id="text859" x="284.805" y="108.906" fill="#d90000" stroke-width="1" font-family="Luxi Sans" font-size="18" font-weight="normal" text-anchor="middle" xml:space="preserve"><tspan id="tspan860" x="284.805" y="108.906">A:2</tspan></text><rect id="rect862" width="35" height="61.25" x="269.806" y="92.031" fill="none" fill-rule="evenodd" stroke="#000" stroke-width=".969" font-size="12"/><text id="text863" x="284.805" y="128.281" stroke-width="1" font-family="Luxi Sans" font-size="18" font-weight="normal" text-anchor="middle" xml:space="preserve"><tspan id="tspan864" x="284.805" y="128.281">B:2</tspan></text><text id="text866" x="284.18" y="146.406" stroke-width="1" font-family="Luxi Sans" font-size="18" font-weight="normal" text-anchor="middle" xml:space="preserve"><tspan id="tspan867" x="284.18" y="146.406">C:1</tspan></text><text id="text872" x="367.847" y="221.389" fill="#d90000" stroke-width="1" font-family="Luxi Sans" font-size="18" font-weight="normal" text-anchor="middle" xml:space="preserve"><tspan id="tspan873" x="367.847" y="221.389">A:2</tspan></text><rect id="rect875" width="35" height="61.25" x="352.847" y="204.514" fill="none" fill-rule="evenodd" stroke="#000" stroke-width=".969" font-size="12"/><text id="text876" x="367.847" y="240.764" fill="#d90000" stroke-width="1" font-family="Luxi Sans" font-size="18" font-weight="normal" text-anchor="middle" xml:space="preserve"><tspan id="tspan877" x="367.847" y="240.764">B:4</tspan></text><text id="text879" x="367.222" y="258.889" stroke-width="1" font-family="Luxi Sans" font-size="18" font-weight="normal" text-anchor="middle" xml:space="preserve"><tspan id="tspan880" x="367.222" y="258.889">C:1</tspan></text><rect id="rect882" width="35" height="61.25" x="263.766" y="206.024" fill="none" fill-rule="evenodd" stroke="#000" stroke-width=".969" font-size="12"/><text id="text883" x="278.766" y="242.274" fill="#d90000" stroke-width="1" font-family="Luxi Sans" font-size="18" font-weight="normal" text-anchor="middle" xml:space="preserve"><tspan id="tspan884" x="278.766" y="242.274">B:3</tspan></text><text id="text886" x="278.141" y="260.399" stroke-width="1" font-family="Luxi Sans" font-size="18" font-weight="normal" text-anchor="middle" xml:space="preserve"><tspan id="tspan887" x="278.141" y="260.399">C:1</tspan></text><rect id="rect889" width="35" height="61.25" x="360.396" y="318.508" fill="none" fill-rule="evenodd" stroke="#000" stroke-width=".969" font-size="12"/><text id="text890" x="375.396" y="354.758" fill="#d90000" stroke-width="1" font-family="Luxi Sans" font-size="18" font-weight="normal" text-anchor="middle" xml:space="preserve"><tspan id="tspan891" x="375.396" y="354.758">B:3</tspan></text><text id="text893" x="374.771" y="372.882" fill="#d90000" stroke-width="1" font-family="Luxi Sans" font-size="18" font-weight="normal" text-anchor="middle" xml:space="preserve"><tspan id="tspan894" x="374.771" y="372.882">C:2</tspan></text><rect id="rect896" width="35" height="61.25" x="407.956" y="318.508" fill="none" fill-rule="evenodd" stroke="#000" stroke-width=".969" font-size="12"/><text id="text897" x="422.956" y="354.757" stroke-width="1" font-family="Luxi Sans" font-size="18" font-weight="normal" text-anchor="middle" xml:space="preserve"><tspan id="tspan898" x="422.956" y="354.757">B:3</tspan></text><text id="text900" x="422.331" y="372.882" fill="#d90000" stroke-width="1" font-family="Luxi Sans" font-size="18" font-weight="normal" text-anchor="middle" xml:space="preserve"><tspan id="tspan901" x="422.331" y="372.882">C:3</tspan></text><text id="text903" x="422.956" y="220.634" stroke-width="1" font-family="Luxi Sans" font-size="18" font-weight="normal" text-anchor="middle" xml:space="preserve"><tspan id="tspan904" x="422.956" y="220.634">A:2</tspan></text><rect id="rect906" width="35" height="61.25" x="407.956" y="203.759" fill="none" fill-rule="evenodd" stroke="#000" stroke-width=".969" font-size="12"/><text id="text907" x="422.956" y="240.009" fill="#d90000" stroke-width="1" font-family="Luxi Sans" font-size="18" font-weight="normal" text-anchor="middle" xml:space="preserve"><tspan id="tspan908" x="422.956" y="240.009">B:5</tspan></text><text id="text910" x="422.331" y="258.134" stroke-width="1" font-family="Luxi Sans" font-size="18" font-weight="normal" text-anchor="middle" xml:space="preserve"><tspan id="tspan911" x="422.331" y="258.134">C:1</tspan></text><text id="text913" x="541.479" y="107.396" fill="#d90000" stroke-width="1" font-family="Luxi Sans" font-size="18" font-weight="normal" text-anchor="middle" xml:space="preserve"><tspan id="tspan914" x="541.479" y="107.396">A:3</tspan></text><rect id="rect916" width="35" height="61.25" x="526.479" y="90.521" fill="none" fill-rule="evenodd" stroke="#000" stroke-width=".969" font-size="12"/><text id="text917" x="541.479" y="126.771" fill="#d90000" stroke-width="1" font-family="Luxi Sans" font-size="18" font-weight="normal" text-anchor="middle" xml:space="preserve"><tspan id="tspan918" x="541.479" y="126.771">B:3</tspan></text><text id="text920" x="540.854" y="144.896" fill="#d90000" stroke-width="1" font-family="Luxi Sans" font-size="18" font-weight="normal" text-anchor="middle" xml:space="preserve"><tspan id="tspan921" x="540.854" y="144.896">C:3</tspan></text><text id="text923" x="660.757" y="106.641" fill="#d90000" stroke-width="1" font-family="Luxi Sans" font-size="18" font-weight="normal" text-anchor="middle" xml:space="preserve"><tspan id="tspan924" x="660.757" y="106.641">A:4</tspan></text><rect id="rect926" width="35" height="61.25" x="645.757" y="89.766" fill="none" fill-rule="evenodd" stroke="#000" stroke-width=".969" font-size="12"/><text id="text927" x="660.757" y="126.016" fill="#d90000" stroke-width="1" font-family="Luxi Sans" font-size="18" font-weight="normal" text-anchor="middle" xml:space="preserve"><tspan id="tspan928" x="660.757" y="126.016">B:5</tspan></text><text id="text930" x="660.132" y="144.141" fill="#d90000" stroke-width="1" font-family="Luxi Sans" font-size="18" font-weight="normal" text-anchor="middle" xml:space="preserve"><tspan id="tspan931" x="660.132" y="144.141">C:5</tspan></text><text id="text933" x="512.037" y="336.138" fill="#d90000" stroke-width="1" font-family="Luxi Sans" font-size="18" font-weight="normal" text-anchor="middle" xml:space="preserve"><tspan id="tspan934" x="512.037" y="336.138">A:2</tspan></text><rect id="rect936" width="35" height="61.25" x="497.037" y="319.263" fill="none" fill-rule="evenodd" stroke="#000" stroke-width=".969" font-size="12"/><text id="text937" x="512.037" y="355.512" fill="#d90000" stroke-width="1" font-family="Luxi Sans" font-size="18" font-weight="normal" text-anchor="middle" xml:space="preserve"><tspan id="tspan938" x="512.037" y="355.512">B:5</tspan></text><text id="text940" x="511.412" y="373.637" fill="#d90000" stroke-width="1" font-family="Luxi Sans" font-size="18" font-weight="normal" text-anchor="middle" xml:space="preserve"><tspan id="tspan941" x="511.412" y="373.637">C:4</tspan></text><text id="text943" x="554.313" y="336.137" stroke-width="1" font-family="Luxi Sans" font-size="18" font-weight="normal" text-anchor="middle" xml:space="preserve"><tspan id="tspan944" x="554.313" y="336.137">A:2</tspan></text><rect id="rect946" width="35" height="61.25" x="539.313" y="319.262" fill="none" fill-rule="evenodd" stroke="#000" stroke-width=".969" font-size="12"/><text id="text947" x="554.313" y="355.512" stroke-width="1" font-family="Luxi Sans" font-size="18" font-weight="normal" text-anchor="middle" xml:space="preserve"><tspan id="tspan948" x="554.313" y="355.512">B:5</tspan></text><text id="text950" x="553.688" y="373.637" fill="#d90000" stroke-width="1" font-family="Luxi Sans" font-size="18" font-weight="normal" text-anchor="middle" xml:space="preserve"><tspan id="tspan951" x="553.688" y="373.637">C:5</tspan></text></svg>